<?xml version="1.0" standalone="no"?>
<!DOCTYPE svg PUBLIC "-//W3C//DTD SVG 20010904//EN"
 "http://www.w3.org/TR/2001/REC-SVG-20010904/DTD/svg10.dtd">
<svg version="1.0" xmlns="http://www.w3.org/2000/svg"
 width="317.000000pt" height="317.000000pt" viewBox="0 0 317.000000 317.000000"
 preserveAspectRatio="xMidYMid meet">
<metadata>
Created by potrace 1.11, written by Peter Selinger 2001-2013
</metadata>
<g transform="translate(0.000000,317.000000) scale(0.100000,-0.100000)"
fill="#000000" stroke="none">
<path d="M1922 2699 c-426 -55 -761 -354 -843 -754 -27 -128 -26 -353 1 -486
63 -307 237 -548 480 -663 100 -48 213 -75 369 -89 l130 -12 -82 -43 c-45 -24
-118 -69 -162 -100 -76 -55 -80 -59 -83 -100 -2 -23 0 -42 3 -42 3 0 45 21 93
46 48 25 106 48 128 51 53 7 144 -17 466 -123 224 -73 385 -114 449 -114 10 0
46 20 81 44 35 23 84 55 111 70 42 25 47 32 47 63 0 35 -1 35 -32 29 -154 -32
-304 -2 -648 131 -63 25 -153 55 -200 68 -93 25 -95 22 45 48 418 79 728 380
818 797 27 128 29 358 3 480 -59 280 -231 498 -483 611 -183 83 -462 118 -691
88z m258 -119 c333 -53 538 -261 621 -629 25 -113 35 -321 20 -433 -42 -314
-170 -527 -376 -624 -115 -55 -183 -69 -330 -68 -148 0 -218 15 -325 69 -287
145 -463 515 -447 940 15 376 160 609 441 712 106 38 272 52 396 33z"/>
<path d="M123 2653 c-2 -6 -3 -24 -1 -39 3 -28 4 -29 103 -40 115 -13 131 -18
147 -48 17 -29 26 -436 26 -1116 1 -627 -8 -881 -31 -925 -48 -92 -168 -121
-277 -65 -22 11 -45 18 -50 15 -6 -3 -10 -56 -10 -117 l0 -111 73 5 c39 3 97
15 127 27 125 48 273 196 344 344 70 145 68 112 76 1042 9 905 9 907 60 932
14 6 67 15 118 19 l92 7 0 41 0 41 -396 0 c-293 0 -398 -3 -401 -12z"/>
</g>
</svg>
